<?xml version="1.0" encoding="utf-8"?>
<!-- Generator: Adobe Illustrator 21.0.0, SVG Export Plug-In . SVG Version: 6.00 Build 0)  -->
<svg version="1.1" xmlns="http://www.w3.org/2000/svg" xmlns:xlink="http://www.w3.org/1999/xlink" x="0px" y="0px"
	 viewBox="0 0 64 64" style="enable-background:new 0 0 64 64;" xml:space="preserve">
<style type="text/css">
	.st0{fill:#FBB684;}
	.st1{fill:#538AC8;}
	.st2{fill:#FDCC99;}
	.st3{fill:#4279BD;}
	.st4{fill:#354E5A;}
	.st5{fill:#ACE0F3;}
	.st6{fill:#DFA57A;}
	.st7{fill:#FED767;}
	.st8{fill:#CCCCCC;}
	.st9{fill:#E6E6E6;}
	.st10{fill:#0B3442;}
	.st11{fill:#F2F2F2;}
	.st12{fill:#B3B3B3;}
	.st13{fill:#65A8DC;}
	.st14{fill:#2E599C;}
	.st15{fill:#FED9B4;}
	.st16{fill:#00A8C7;}
	.st17{fill:#02BFE2;}
	.st18{fill:#FFFFFF;}
	.st19{fill:#68C7C2;}
	.st20{fill:#00969D;}
	.st21{fill:#1CACAB;}
	.st22{fill:#FFE36E;}
	.st23{fill:#FEE9AB;}
	.st24{fill:#CC2B57;}
	.st25{fill:#DB1B51;}
	.st26{fill:#EE3A74;}
	.st27{fill:#FCB216;}
	.st28{fill:#FFCA3E;}
	.st29{fill:#DD2B26;}
	.st30{fill:#009E9E;}
	.st31{fill:#D22227;}
	.st32{fill:#CCDDE7;}
	.st33{fill:#57646E;}
	.st34{fill:#00A161;}
	.st35{fill:#19AD6D;}
	.st36{fill:#ABBAC3;}
	.st37{fill:#7A8D9D;}
	.st38{fill:#55C9E9;}
	.st39{fill:#EE2761;}
	.st40{fill:#A6228E;}
	.st41{fill:#F27DA5;}
	.st42{fill:#F064A5;}
	.st43{fill:#F8B6C6;}
	.st44{fill:#F494B7;}
	.st45{fill:#732672;}
	.st46{fill:#7EC3EC;}
	.st47{fill:#3B6BB4;}
	.st48{fill:#8AD5EC;}
	.st49{fill:#A36841;}
	.st50{fill:#BD8150;}
	.st51{fill:#FFE8C9;}
	.st52{fill:#48B758;}
	.st53{fill:#CC3995;}
	.st54{fill:#37BA95;}
	.st55{fill:none;stroke:#000000;stroke-linecap:round;stroke-linejoin:round;stroke-miterlimit:10;}
	.st56{fill:#D7559F;}
	.st57{fill:#00B08E;}
	.st58{fill:#84CBA0;}
	.st59{fill:#56BF98;}
	.st60{fill:#FEE7A3;}
	.st61{fill:#D3EEF4;}
</style>
<g id="guides">
</g>
<g id="_x32_5._stay_home">
</g>
<g id="_x32_4._covid_news">
</g>
<g id="_x32_3._tissue">
</g>
<g id="_x32_2._clothing">
</g>
<g id="_x32_1._hand_washing">
</g>
<g id="_x32_0._dna">
</g>
<g id="_x31_9._social_distancing">
</g>
<g id="_x31_8._hospital">
</g>
<g id="_x31_7._statistic">
</g>
<g id="_x31_6._no_flight">
</g>
<g id="_x31_5._china">
</g>
<g id="_x31_4._water_drop">
</g>
<g id="_x31_3._virus_scan">
</g>
<g id="_x31_2._water_tap">
</g>
<g id="_x31_1._soap">
</g>
<g id="_x31_0._bat">
</g>
<g id="_x39_._microscope">
</g>
<g id="_x38_._cough">
</g>
<g id="_x37_._medical_mask">
	<path class="st21" d="M54.9699707,29.9099731v0.0100098c-0.1399536,2.1199951-1.0799561,5.9799805-5.789978,8.5200195
		C49.1099854,38.4799805,49.0300293,38.5,48.9500122,38.5c-0.1799927,0-0.3599854-0.1000366-0.4500122-0.2600098
		c-0.1300049-0.25-0.039978-0.5499878,0.210022-0.6799927c0.0199585-0.0100098,0.039978-0.0300293,0.0599976-0.0400391v-9.3999634
		h5.3599854c0.0599976-0.0499878,0.1400146-0.1000366,0.2299805-0.1099854
		c0.2800293-0.0500488,0.5300293,0.1399536,0.5800171,0.4099731C54.9400024,28.4400024,55.0300293,29.0199585,54.9699707,29.9099731
		z"/>
	<path class="st30" d="M15.6875,28.5625v-0.34375H9.9102783c-0.0744019-0.1084595-0.1893921-0.1885986-0.3292236-0.2114258
		c-0.2744141-0.0478516-0.5288086,0.1386719-0.5742188,0.4106445c-0.0107422,0.0634766-0.980957,6.3945313,5.7563477,10.0224609
		C14.8383789,38.480957,14.9194336,38.5,14.9995117,38.5c0.1782227,0,0.3505859-0.0952148,0.440918-0.2631836
		c0.1308594-0.2426758,0.0395508-0.5458984-0.2036133-0.6772461c-0.0176392-0.0095215-0.0317993-0.0201416-0.0493164-0.0296631
		V28.5625H15.6875z"/>
	<path class="st33" d="M15.097168,36.8457031c-0.2402344-0.1401367-0.5458984-0.0566406-0.6835938,0.1816406
		c-0.0444946,0.0767212-0.0996704,0.1447144-0.1473389,0.2189331l-0.8800659-0.513916
		c0.0567627-0.199585-0.0100708-0.4202271-0.1898804-0.5453491c-0.2270508-0.1582031-0.5390625-0.1020508-0.6958008,0.1245117
		c-0.7583008,1.0883789-1.9575195,1.6835938-3.2900391,1.6879883C7.9916992,37.9853516,7,36.9223633,7,35.6293945V20.465332
		c0-1.9291992,0.5322266-3.0620117,1.5820313-3.3671875C9.2583008,16.9023438,9.9428711,17,10.5083008,17.3764648
		C11.0639648,17.7456055,11.4262695,18.3374023,11.5029297,19l0.1796875,1.5571289
		C11.7114258,20.8095703,11.925293,21,12.1791992,21h2.0131836c0.1425781,0,0.2783203-0.0610352,0.3730469-0.1674805
		c0.0952148-0.1064453,0.1401367-0.2480469,0.1235352-0.3896484L14.4829102,18.65625
		C14.1762695,16.0014648,11.9306641,14,9.2587891,14C6.3588867,14,4,16.3588867,4,19.2587891v16.4824219
		C4,38.6411133,6.3588867,41,9.2587891,41c2.4707031,0,4.7773438-1.3300781,6.0200195-3.4707031
		C15.4174805,37.2905273,15.3359375,36.984375,15.097168,36.8457031z"/>
	<path class="st20" d="M54.9699707,29.9099731v0.0100098C54.8200073,29.9699707,54.6599731,30,54.5,30h-5.7299805v-1.8800049
		h5.3599854c0.0599976-0.0499878,0.1400146-0.1000366,0.2299805-0.1099854
		c0.2800293-0.0500488,0.5300293,0.1399536,0.5800171,0.4099731C54.9400024,28.4400024,55.0300293,29.0199585,54.9699707,29.9099731
		z"/>
	<path class="st20" d="M8.9732313,29.9089775v0.0100098c0.1499634,0.0499878,0.3099976,0.0800171,0.4699707,0.0800171h5.7299805
		v-1.8800049H9.8131971c-0.0599976-0.0499878-0.1400146-0.1000366-0.2299805-0.1099854
		c-0.2800293-0.0500488-0.5300293,0.1399536-0.5800171,0.4099731C9.0031996,28.4390068,8.9131727,29.0189629,8.9732313,29.9089775z"
		/>
	<path class="st33" d="M54.7412109,14c-2.671875,0-4.9174805,2.0014648-5.2241211,4.65625l-0.2060547,1.7866211
		c-0.0166016,0.1416016,0.0283203,0.2832031,0.1235352,0.3896484C49.5292969,20.9389648,49.6650391,21,49.8076172,21h2.0131836
		c0.2539063,0,0.4677734-0.1904297,0.496582-0.4428711L52.4970703,19c0.1318359-1.1401367,1.0961914-2,2.2441406-2
		C55.9868164,17,57,18.0131836,57,19.2587891v16.4824219C57,36.9868164,55.9868164,38,54.7412109,38
		c-1.3261719,0-2.5146484-0.6254883-3.2607422-1.7163086c-0.1547852-0.2270508-0.4663086-0.2861328-0.6948242-0.1303711
		c-0.2051392,0.1401367-0.2633057,0.4033813-0.161438,0.6213379l-0.8775024,0.4904175
		c-0.0526733-0.0813599-0.112854-0.1563721-0.1617432-0.2406616c-0.1381836-0.237793-0.4433594-0.3203125-0.6835938-0.1816406
		c-0.2387695,0.1386719-0.3203125,0.4443359-0.1816406,0.6835938C49.9619141,39.6689453,52.269043,41,54.7412109,41
		C57.6411133,41,60,38.6411133,60,35.7412109V19.2587891C60,16.3588867,57.6411133,14,54.7412109,14z"/>
	<path class="st19" d="M51,28.5499878l-0.4400024,4.5700073c-0.5,5.2799683-3.1300049,9.8499756-7,12.8900146
		C40.3900146,48.5199585,36.3699951,50,32,50c-9.6699829,0-17.6500244-7.2600098-18.5599976-16.8800049L13,28.5499878
		c-0.0100098-0.1400146,0.039978-0.2800293,0.1300049-0.3900146C13.2199707,28.0599976,13.3599854,28,13.5,28h37
		c0.1400146,0,0.2800293,0.0599976,0.3699951,0.1599731C50.960022,28.2699585,51.0100098,28.4099731,51,28.5499878z"/>
	<path class="st21" d="M55,22.5v6c0,0.2799683-0.2199707,0.5-0.5,0.5h-45C9.2199707,29,9,28.7799683,9,28.5v-6
		c0-1.3800049,1.1199951-2.5,2.5-2.5h41C53.8800049,20,55,21.1199951,55,22.5z"/>
	<path class="st21" d="M43.5599976,46.0100098C40.3900146,48.5199585,36.3699951,50,32,50
		c-9.6699829,0-17.6500244-7.2600098-18.5599976-16.8800049L13,28.5499878
		c-0.0100098-0.1400146,0.039978-0.2800293,0.1300049-0.3900146C13.2199707,28.0599976,13.3599854,28,13.5,28h6.9500122
		C23.0200195,34.2600098,29.4699707,45.0700073,43.5599976,46.0100098z"/>
	<path class="st30" d="M55,27v1.5c0,0.2799683-0.2199707,0.5-0.5,0.5h-45C9.2199707,29,9,28.7799683,9,28.5v-6
		c0-1.3800049,1.1199951-2.5,2.5-2.5h3.6699829C15.1699829,20,11.3800049,27,55,27z"/>
	<g>
		<path class="st32" d="M32,36.0263672c-0.3100586,0-0.6196289-0.0410156-0.9213867-0.1230469l-10.7099609-2.9208984
			c-0.2666016-0.0727539-0.4238281-0.3476563-0.3510742-0.6137695c0.0722656-0.2670898,0.3496094-0.4233398,0.6137695-0.3510742
			l10.7104492,2.9208984c0.4306641,0.1171875,0.8862305,0.1171875,1.315918,0l10.7109375-2.9208984
			c0.2641602-0.0712891,0.5410156,0.0839844,0.6137695,0.3510742c0.0727539,0.2661133-0.0844727,0.5410156-0.3510742,0.6137695
			l-10.7104492,2.9208984C32.6196289,35.9853516,32.3100586,36.0263672,32,36.0263672z"/>
	</g>
	<path class="st36" d="M20.3686523,32.9824219l3.1218872,0.8514404c-0.2705078-0.4180908-0.5289917-0.8346558-0.7709351-1.2467651
		l-2.0882568-0.569519c-0.2641602-0.0722656-0.5415039,0.0839844-0.6137695,0.3510742
		C19.9448242,32.6347656,20.1020508,32.909668,20.3686523,32.9824219z"/>
	<g>
		<path class="st32" d="M32,43.9892578c-0.4052734,0-0.8105469-0.0703125-1.1962891-0.2104492l-10.4746094-3.809082
			c-0.2592773-0.0942383-0.3935547-0.3808594-0.2988281-0.640625c0.0942383-0.2597656,0.3803711-0.3925781,0.640625-0.2988281
			l10.4746094,3.809082c0.5507813,0.2001953,1.1582031,0.2001953,1.7089844,0l10.4746094-3.809082
			c0.2597656-0.0942383,0.5458984,0.0390625,0.640625,0.2988281s-0.0395508,0.5463867-0.2988281,0.640625l-10.4746094,3.809082
			C32.8105469,43.9189453,32.4052734,43.9892578,32,43.9892578z"/>
	</g>
	<path class="st36" d="M32.7932739,42.8557129c-0.5346069,0.1789551-1.1169434,0.1765747-1.6477661-0.0163574l-10.4746094-3.809082
		c-0.2602539-0.09375-0.5463867,0.0390625-0.640625,0.2988281c-0.0947266,0.2597656,0.0395508,0.5463867,0.2988281,0.640625
		l10.4746094,3.809082C31.1894531,43.9189453,31.5947266,43.9892578,32,43.9892578s0.8105469-0.0703125,1.1962891-0.2104492
		l0.7927856-0.288269C33.5802612,43.2879639,33.1815186,43.076416,32.7932739,42.8557129z"/>
	<g>
		<path class="st9" d="M12.5,27c-0.2763672,0-0.5-0.2236328-0.5-0.5v-4c0-0.2763672,0.2236328-0.5,0.5-0.5s0.5,0.2236328,0.5,0.5v4
			C13,26.7763672,12.7763672,27,12.5,27z"/>
	</g>
	<g>
		<path class="st9" d="M51.5,27c-0.2763672,0-0.5-0.2236328-0.5-0.5v-4c0-0.2763672,0.2236328-0.5,0.5-0.5s0.5,0.2236328,0.5,0.5v4
			C52,26.7763672,51.7763672,27,51.5,27z"/>
	</g>
</g>
<g id="_x36_._coronavirus">
</g>
<g id="_x35_._world">
</g>
<g id="_x34_._shield">
</g>
<g id="_x33_._disinfectant">
</g>
<g id="_x32_._thermometer">
</g>
<g id="_x31_._protected">
</g>
</svg>
